<svg xmlns="http://www.w3.org/2000/svg" xmlns:xlink="http://www.w3.org/1999/xlink" xmlns:sketch="http://www.bohemiancoding.com/sketch/ns" viewBox="0 0 100 125" version="1.1" x="0px" y="0px"><title>eye-fill 198</title><desc>Created with Sketch.</desc><g stroke="none" stroke-width="1" fill="none" fill-rule="evenodd" sketch:type="MSPage"><path d="M67.1306818,15 L67.1306818,21.9034091 L60.2272727,21.9034091 L60.2272727,28.8068182 L67.1306818,28.8068182 L67.1306818,21.9034091 L74.0340909,21.9034091 L74.0340909,15 L67.1306818,15 Z M25.7102273,21.9034091 L32.6136364,21.9034091 L32.6136364,15 L25.7102273,15 L25.7102273,21.9034091 Z M32.6136364,28.8068182 L39.5170455,28.8068182 L39.5170455,21.9034091 L32.6136364,21.9034091 L32.6136364,28.8068182 Z M53.3238636,28.8068182 L53.3238636,35.7102273 L46.4204545,35.7102273 L46.4204545,28.8068182 L39.5170455,28.8068182 L39.5170455,35.7102273 L32.6136364,35.7102273 L25.7102273,35.7102273 L18.8068182,35.7102273 L18.8068182,42.6136364 L11.9034091,42.6136364 L11.9034091,49.5170455 L5,49.5170455 L5,56.4204545 L11.9034091,56.4204545 L11.9034091,63.3238636 L18.8068182,63.3238636 L18.8068182,70.2272727 L25.7102273,70.2272727 L32.6136364,70.2272727 L32.6136364,77.1306818 L39.5170455,77.1306818 L39.5170455,70.2272727 L46.4204545,70.2272727 L46.4204545,77.1306818 L53.3238636,77.1306818 L53.3238636,70.2272727 L60.2272727,70.2272727 L60.2272727,77.1306818 L67.1306818,77.1306818 L67.1306818,70.2272727 L74.0340909,70.2272727 L80.9375,70.2272727 L80.9375,63.3238636 L87.8409091,63.3238636 L87.8409091,56.4204545 L94.7443182,56.4204545 L94.7443182,49.5170455 L87.8409091,49.5170455 L87.8409091,42.6136364 L80.9375,42.6136364 L80.9375,35.7102273 L74.0340909,35.7102273 L67.1306818,35.7102273 L60.2272727,35.7102273 L60.2272727,28.8068182 L53.3238636,28.8068182 Z M60.2272727,49.5170455 L67.1306818,49.5170455 L74.0340909,49.5170455 L74.0340909,56.4204545 L67.1306818,56.4204545 L60.2272727,56.4204545 L60.2272727,49.5170455 Z M25.7102273,49.5170455 L32.6136364,49.5170455 L39.5170455,49.5170455 L39.5170455,56.4204545 L32.6136364,56.4204545 L25.7102273,56.4204545 L25.7102273,49.5170455 Z M67.1306818,84.0340909 L74.0340909,84.0340909 L74.0340909,77.1306818 L67.1306818,77.1306818 L67.1306818,84.0340909 Z M25.7102273,84.0340909 L32.6136364,84.0340909 L32.6136364,77.1306818 L25.7102273,77.1306818 L25.7102273,84.0340909 Z" fill="#000000" sketch:type="MSShapeGroup"/></g><text x="0" y="115" fill="#000000" font-size="5px" font-weight="bold" font-family="'Helvetica Neue', Helvetica, Arial-Unicode, Arial, Sans-serif">Created by Icon Island</text><text x="0" y="120" fill="#000000" font-size="5px" font-weight="bold" font-family="'Helvetica Neue', Helvetica, Arial-Unicode, Arial, Sans-serif">from the Noun Project</text></svg>