<svg xmlns="http://www.w3.org/2000/svg" xmlns:xlink="http://www.w3.org/1999/xlink" xmlns:sketch="http://www.bohemiancoding.com/sketch/ns" viewBox="0 0 100 125" version="1.1" x="0px" y="0px"><title>eye-fill 195</title><desc>Created with Sketch.</desc><g stroke="none" stroke-width="1" fill="none" fill-rule="evenodd" sketch:type="MSPage"><path d="M67.2272727,25.9034091 L74.1306818,25.9034091 L74.1306818,19 L67.2272727,19 L67.2272727,25.9034091 Z M25.8068182,25.9034091 L32.7102273,25.9034091 L32.7102273,19 L25.8068182,19 L25.8068182,25.9034091 Z M60.3238636,25.9034091 L60.3238636,32.8068182 L60.3238636,39.7102273 L53.4204545,39.7102273 L46.5170455,39.7102273 L39.6136364,39.7102273 L39.6136364,32.8068182 L39.6136364,25.9034091 L32.7102273,25.9034091 L32.7102273,32.8068182 L32.7102273,39.7102273 L25.8068182,39.7102273 L25.8068182,46.6136364 L18.9034091,46.6136364 L18.9034091,53.5170455 L12,53.5170455 L12,60.4204545 L12,67.3238636 L12,74.2272727 L12,81.1306818 L18.9034091,81.1306818 L18.9034091,74.2272727 L18.9034091,67.3238636 L18.9034091,60.4204545 L18.9034091,53.5170455 L25.8068182,53.5170455 L25.8068182,60.4204545 L25.8068182,67.3238636 L25.8068182,74.2272727 L32.7102273,74.2272727 L32.7102273,67.3238636 L39.6136364,67.3238636 L46.5170455,67.3238636 L53.4204545,67.3238636 L60.3238636,67.3238636 L67.2272727,67.3238636 L67.2272727,74.2272727 L74.1306818,74.2272727 L74.1306818,67.3238636 L74.1306818,60.4204545 L74.1306818,53.5170455 L81.0340909,53.5170455 L81.0340909,46.6136364 L74.1306818,46.6136364 L74.1306818,39.7102273 L67.2272727,39.7102273 L67.2272727,32.8068182 L67.2272727,25.9034091 L60.3238636,25.9034091 Z M60.3238636,53.5170455 L60.3238636,46.6136364 L67.2272727,46.6136364 L67.2272727,53.5170455 L67.2272727,60.4204545 L60.3238636,60.4204545 L60.3238636,53.5170455 Z M32.7102273,53.5170455 L32.7102273,46.6136364 L39.6136364,46.6136364 L39.6136364,53.5170455 L39.6136364,60.4204545 L32.7102273,60.4204545 L32.7102273,53.5170455 Z M81.0340909,53.5170455 L81.0340909,60.4204545 L81.0340909,67.3238636 L81.0340909,74.2272727 L81.0340909,81.1306818 L87.9375,81.1306818 L87.9375,53.5170455 L81.0340909,53.5170455 Z M60.3238636,74.2272727 L53.4204545,74.2272727 L53.4204545,81.1306818 L60.3238636,81.1306818 L67.2272727,81.1306818 L67.2272727,74.2272727 L60.3238636,74.2272727 Z M39.6136364,74.2272727 L32.7102273,74.2272727 L32.7102273,81.1306818 L39.6136364,81.1306818 L46.5170455,81.1306818 L46.5170455,74.2272727 L39.6136364,74.2272727 Z" fill="#000000" sketch:type="MSShapeGroup"/></g><text x="0" y="115" fill="#000000" font-size="5px" font-weight="bold" font-family="'Helvetica Neue', Helvetica, Arial-Unicode, Arial, Sans-serif">Created by Icon Island</text><text x="0" y="120" fill="#000000" font-size="5px" font-weight="bold" font-family="'Helvetica Neue', Helvetica, Arial-Unicode, Arial, Sans-serif">from the Noun Project</text></svg>