<svg xmlns="http://www.w3.org/2000/svg" xmlns:xlink="http://www.w3.org/1999/xlink"  stroke="#f1c40f" fill="#f1c40f" version="1.1" x="0px" y="0px" xml:space="preserve"><g><path d="M35.743,79.882c-3.622,2.138-6.739,5.077-9.084,8.55c-4.424-0.861-8.699,2.02-9.56,6.442   c-0.148,0.742-0.208,1.454-0.148,2.196h66.588c0.357-4.482-3.027-8.431-7.51-8.758c-0.742-0.059-1.484-0.029-2.197,0.119   c-2.375-3.473-5.463-6.412-9.084-8.55C55.1,80.624,45.391,80.624,35.743,79.882z"/></g><path d="M65.905,58.27c0.118,0.029,0.179,0.029,0.297,0.029c3.859,0.416,7.688,1.068,11.46,2.02c3.443,0.86,6.738,2.227,9.797,4.066  c0.949,0.623,1.543,1.662,1.543,2.82c0,1.129-0.594,2.197-1.543,2.762c-3.059,1.84-6.354,3.205-9.797,4.066  c-3.771,0.95-7.601,1.662-11.46,2.049c-5.313,0.534-10.628,0.831-15.972,0.831c-5.314,0-10.628-0.297-15.942-0.831  c-3.859-0.387-7.689-1.099-11.459-2.049c-3.443-0.861-6.739-2.227-9.767-4.066c-0.979-0.564-1.603-1.633-1.603-2.762  c0-1.158,0.624-2.197,1.603-2.82c3.028-1.84,6.324-3.206,9.767-4.066c3.771-0.951,7.6-1.604,11.459-2.02  c0.119,0,0.178,0,0.297-0.029l0.712,5.433c-1.039,0.118-2.078,0.267-3.087,0.415c-2.315,0.416-4.542,1.039-6.709,1.93  c-0.475,0.209-0.771,0.654-0.771,1.158c0,0.475,0.297,0.95,0.771,1.129c2.167,0.86,4.394,1.514,6.709,1.899  c2.197,0.356,4.394,0.624,6.591,0.831l-2.078-15.615c-1.099-0.653-2.197-1.426-3.177-2.256c-4.898,3.057-10.925,3.829-16.447,2.137  C6.62,52.094,0.741,40.932,4.007,30.452C7.272,19.973,18.405,14.094,28.885,17.36c1.633-2.286,3.622-4.305,5.908-5.938  c11.786-8.52,28.262-5.878,36.812,5.938c5.551-1.751,11.519-0.95,16.417,2.108c9.321,5.819,12.172,18.08,6.323,27.402  c-5.818,9.292-18.05,12.142-27.371,6.324c-1.01,0.83-2.108,1.603-3.207,2.256l-2.078,15.615c2.197-0.207,4.395-0.475,6.591-0.831  c2.286-0.386,4.542-1.039,6.71-1.899c0.445-0.179,0.771-0.654,0.771-1.129c0-0.504-0.326-0.949-0.771-1.158  c-2.168-0.891-4.424-1.514-6.71-1.93c-1.009-0.148-2.048-0.297-3.087-0.415L65.905,58.27z M56.375,43.515  c5.938-3.414,7.957-10.955,4.572-16.862s-10.925-7.957-16.833-4.572c-5.938,3.384-7.956,10.925-4.572,16.862  c1.098,1.9,2.642,3.474,4.572,4.572c-0.92,3.384,1.099,6.858,4.513,7.749c3.355,0.92,6.857-1.099,7.748-4.483  C56.672,45.711,56.672,44.554,56.375,43.515z M48.627,34.875c0-1.751-1.425-3.176-3.177-3.176s-3.177,1.425-3.177,3.176  c0,1.752,1.425,3.177,3.177,3.177S48.627,36.627,48.627,34.875L48.627,34.875z M47.677,42.951c-0.178,0.208-0.148,0.475,0.03,0.683  c0.237,0.327,0.416,0.416,0.564,0.416h1.959h1.988c0.148,0,0.327-0.089,0.445-0.238c0.297-0.386,0.327-0.653,0.148-0.861  l-2.078-3.028c-0.207-0.267-0.563-0.326-0.831-0.148C49.755,39.922,47.677,42.951,47.677,42.951 M58.217,34.875  c0-1.751-1.426-3.176-3.178-3.176c-1.751,0-3.176,1.425-3.176,3.176c0,1.752,1.425,3.177,3.176,3.177  C56.791,38.052,58.217,36.627,58.217,34.875L58.217,34.875z"/></svg>
