<svg stroke="#2ecc71" fill="#2ecc71" xmlns="http://www.w3.org/2000/svg" xmlns:xlink="http://www.w3.org/1999/xlink" version="1.1" x="0px" y="0px" xml:space="preserve"><path stroke="#2ecc71" fill="#2ecc71" d="M-301.574-62.851l-1.868-3.986l-3.399-3.641l-3.638-2.572l-3.871-1.679l-4.501-0.995h-26.688h-26.688  l-4.501,0.995l-3.871,1.679l-3.637,2.572l-3.4,3.641l-1.867,3.986l-0.612,3.62V5h44.577V3.504l0,0V5h44.578v-64.23L-301.574-62.851z   M-380.931-58.869v5.971h-5.867v-5.971H-380.931z M-347.256-31.995h-4.81v-5.971h4.81V-31.995z M-347.256-30.999v5.972h-4.81v-5.972  H-347.256z M-343.936-30.999h4.81v5.972h-4.81V-30.999z M-343.936-31.995v-5.971h4.81v5.971H-343.936z M-338.13-37.966h5.971v5.971  h-5.971V-37.966z M-338.13-38.962v-5.971h5.971v5.971H-338.13z M-339.126-38.962h-4.81v-5.971h4.81V-38.962z M-347.256-38.962h-4.81  v-5.971h4.81V-38.962z M-353.062-38.962h-5.971v-5.971h5.971V-38.962z M-353.062-37.966v5.971h-5.971v-5.971H-353.062z   M-360.028-31.995H-366v-5.971h5.972V-31.995z M-360.028-30.999v5.972H-366v-5.972H-360.028z M-359.032-30.999h5.971v5.972h-5.971  V-30.999z M-353.062-24.031v5.972h-5.971v-5.972H-353.062z M-352.065-24.031h4.81v5.972h-4.81V-24.031z M-343.936-24.031h4.81v5.972  h-4.81V-24.031z M-338.13-24.031h5.971v5.972h-5.971V-24.031z M-338.13-25.027v-5.972h5.971v5.972H-338.13z M-331.163-30.999h5.973  v5.972h-5.973V-30.999z M-331.163-31.995v-5.971h5.973v5.971H-331.163z M-331.163-38.962v-5.971h5.973v5.971H-331.163z   M-331.163-45.93v-5.972h5.973v5.972H-331.163z M-332.159-45.93h-5.971v-5.972h5.971V-45.93z M-339.126-45.93h-4.81v-5.972h4.81  V-45.93z M-343.936-52.897v-5.971h4.81v5.971H-343.936z M-347.256-52.897h-4.81v-5.971h4.81V-52.897z M-347.256-51.901v5.972h-4.81  v-5.972H-347.256z M-353.062-45.93h-5.971v-5.972h5.971V-45.93z M-360.028-45.93H-366v-5.972h5.972V-45.93z M-360.028-44.934v5.971  H-366v-5.971H-360.028z M-366.996-38.962h-5.972v-5.971h5.972V-38.962z M-366.996-37.966v5.971h-5.972v-5.971H-366.996z   M-366.996-30.999v5.972h-5.972v-5.972H-366.996z M-366.996-24.031v5.972h-5.972v-5.972H-366.996z M-366-24.031h5.972v5.972H-366  V-24.031z M-360.028-17.063v5.971H-366v-5.971H-360.028z M-359.032-17.063h5.971v5.971h-5.971V-17.063z M-352.065-17.063h4.81v5.971  h-4.81V-17.063z M-343.936-17.063h4.81v5.971h-4.81V-17.063z M-338.13-17.063h5.971v5.971h-5.971V-17.063z M-331.163-17.063h5.973  v5.971h-5.973V-17.063z M-331.163-18.06v-5.972h5.973v5.972H-331.163z M-324.195-24.031h5.972v5.972h-5.972V-24.031z   M-324.195-25.027v-5.972h5.972v5.972H-324.195z M-324.195-31.995v-5.971h5.972v5.971H-324.195z M-324.195-38.962v-5.971h5.972  v5.971H-324.195z M-324.195-45.93v-5.972h5.972v5.972H-324.195z M-324.195-52.897v-5.971h5.972v5.971H-324.195z M-325.19-52.897  h-5.973v-5.971h5.973V-52.897z M-332.159-52.897h-5.971v-5.971h5.971V-52.897z M-338.13-59.865v-5.971h5.971v5.971H-338.13z   M-339.126-59.865h-4.81v-5.971h4.81V-59.865z M-347.256-59.865h-4.81v-5.971h4.81V-59.865z M-353.062-59.865h-5.971v-5.971h5.971  V-59.865z M-353.062-58.869v5.971h-5.971v-5.971H-353.062z M-360.028-52.897H-366v-5.971h5.972V-52.897z M-366.996-52.897h-5.972  v-5.971h5.972V-52.897z M-366.996-51.901v5.972h-5.972v-5.972H-366.996z M-373.964-45.93h-5.972v-5.972h5.972V-45.93z   M-373.964-44.934v5.971h-5.972v-5.971H-373.964z M-373.964-37.966v5.971h-5.972v-5.971H-373.964z M-373.964-30.999v5.972h-5.972  v-5.972H-373.964z M-373.964-24.031v5.972h-5.972v-5.972H-373.964z M-373.964-17.063v5.971h-5.972v-5.971H-373.964z   M-372.968-17.063h5.972v5.971h-5.972V-17.063z M-366.996-10.097v5.972h-5.972v-5.972H-366.996z M-366-10.097h5.972v5.972H-366  V-10.097z M-359.032-10.097h5.971v5.972h-5.971V-10.097z M-352.065-10.097h4.81v5.972h-4.81V-10.097z M-343.936-10.097h4.81v5.972  h-4.81V-10.097z M-338.13-10.097h5.971v5.972h-5.971V-10.097z M-331.163-10.097h5.973v5.972h-5.973V-10.097z M-324.195-10.097h5.972  v5.972h-5.972V-10.097z M-324.195-11.093v-5.971h5.972v5.971H-324.195z M-317.228-17.063h5.972v5.971h-5.972V-17.063z   M-317.228-18.06v-5.972h5.972v5.972H-317.228z M-317.228-25.027v-5.972h5.972v5.972H-317.228z M-317.228-31.995v-5.971h5.972v5.971  H-317.228z M-317.228-38.962v-5.971h5.972v5.971H-317.228z M-317.228-45.93v-5.972h5.972v5.972H-317.228z M-317.228-52.897v-5.971  h5.972v5.971H-317.228z M-317.228-59.865v-5.971h5.972v5.971H-317.228z M-318.224-59.865h-5.972v-5.971h5.972V-59.865z   M-325.19-59.865h-5.973v-5.971h5.973V-59.865z M-331.163-66.832v-5.572h5.973v5.572H-331.163z M-332.159-66.832h-5.971v-5.572  h5.971V-66.832z M-339.126-66.832h-4.81v-5.572h4.81V-66.832z M-347.256-66.832h-4.81v-5.572h4.81V-66.832z M-353.062-66.832h-5.971  v-5.572h5.971V-66.832z M-360.028-66.832H-366v-5.572h5.972V-66.832z M-360.028-65.836v5.971H-366v-5.971H-360.028z   M-366.996-59.865h-5.972v-5.971h5.972V-59.865z M-373.964-59.865h-5.972v-5.971h5.972V-59.865z M-373.964-58.869v5.971h-5.972  v-5.971H-373.964z M-380.931-51.901v5.972h-5.867v-5.972H-380.931z M-380.931-44.934v5.971h-5.867v-5.971H-380.931z   M-380.931-37.966v5.971h-5.867v-5.971H-380.931z M-380.931-30.999v5.972h-5.867v-5.972H-380.931z M-380.931-24.031v5.972h-5.867  v-5.972H-380.931z M-380.931-17.063v5.971h-5.867v-5.971H-380.931z M-380.931-10.097v5.972h-5.867v-5.972H-380.931z   M-379.936-10.097h5.972v5.972h-5.972V-10.097z M-373.964-3.129V1.68h-5.972v-4.809H-373.964z M-372.968-3.129h5.972V1.68h-5.972  V-3.129z M-366-3.129h5.972V1.68H-366V-3.129z M-359.032-3.129h5.971V1.68h-5.971V-3.129z M-352.065-3.129h4.81V1.68h-4.81V-3.129z   M-343.936-3.129h4.81V1.68h-4.81V-3.129z M-338.13-3.129h5.971V1.68h-5.971V-3.129z M-331.163-3.129h5.973V1.68h-5.973V-3.129z   M-324.195-3.129h5.972V1.68h-5.972V-3.129z M-317.228-3.129h5.972V1.68h-5.972V-3.129z M-317.228-4.125v-5.972h5.972v5.972  H-317.228z M-310.26-10.097h5.978v5.972h-5.978V-10.097z M-310.26-11.093v-5.971h5.978v5.971H-310.26z M-310.26-18.06v-5.972h5.978  v5.972H-310.26z M-310.26-25.027v-5.972h5.978v5.972H-310.26z M-310.26-31.995v-5.971h5.978v5.971H-310.26z M-310.26-38.962v-5.971  h5.978v5.971H-310.26z M-310.26-45.93v-5.972h5.978v5.972H-310.26z M-310.26-52.897v-5.971h5.978v5.971H-310.26z M-304.772-61.852  l0.336,1.987h-5.823v-5.971h3.21l0.824,0.882L-304.772-61.852z M-307.979-66.832h-2.28v-1.997l1.224,0.865L-307.979-66.832z   M-312.115-70.141l0.859,0.608v2.701h-5.972v-5.133l1.85,0.409L-312.115-70.141z M-318.224-72.186v5.354h-5.972v-5.572h4.981  L-318.224-72.186z M-371.866-72.404h4.87v5.572h-5.972v-5.329L-371.866-72.404z M-375.701-71.557l1.737-0.384v5.108h-5.972v-2.623  l0.972-0.687L-375.701-71.557z M-380.931-68.75v1.918h-2.169l1.057-1.132L-380.931-68.75z M-384.854-64.954l0.824-0.882h3.1v5.971  h-5.713l0.336-1.987L-384.854-64.954z M-386.798-3.129h5.867V1.68h-5.867V-3.129z M-310.26,1.68v-4.809h5.978V1.68H-310.26z"/><path d="M-312.26,77.32l-1.135-3.145l-1.466-2.857l-1.891-2.903l-2.735-2.771l-3.104-2.057l-3.198-1.376l-4.088,0.998h-5.681  l-1.688-3.45l-1.89-2.9l-2.735-2.77l-3.104-2.056l-3.198-1.326l-4.089,1.048h-5.68l-1.688-3.524l-1.889-2.914l-2.736-2.775  l-3.104-2.059l-3.198-1.361l-4.088,1.014h-5.727l-4.089-1.015l-3.198,1.359l-3.104,2.057l-2.735,2.772l-1.891,2.906l-1.466,2.886  l-1.123,3.145h-1.699v12.283h2.324V77.32l1.052,4.713l2.144,3.717l2.433,2.841l2.555,2.214l4.13,2.309l4.312,0.973h7.093  l1.861,3.228l2.433,2.837l2.555,2.211l4.13,2.34l4.312,1.005h7.105l1.838,3.162l2.438,2.836l2.557,2.211l4.132,2.29l4.313,0.955  h6.472l4.313-0.957l4.132-2.286l2.558-2.216l2.438-2.843l2.136-3.718l1.055-4.712V89.77h2.323V77.32H-312.26z M-336.01,66.529h6.54  l3.406-0.827l1.896,0.813l2.561,1.703l2.257,2.289l1.613,2.481l1.291,2.51l0.658,1.821h-33.903l0.659-1.82l1.29-2.516l1.613-2.477  l2.257-2.286l2.561-1.696l1.896-0.824L-336.01,66.529z M-358.394,55.076h6.541l3.406-0.878l1.895,0.789l2.562,1.689l2.257,2.284  l2.024,3.279l-3.181,1.35l-3.279,2.275h-25.918l0.671-1.887l1.291-2.532l1.612-2.484l2.258-2.29l2.561-1.699l1.895-0.773  L-358.394,55.076z M-393.799,52.425l1.29-2.532l1.613-2.485l2.257-2.29l2.561-1.699l1.896-0.807l3.406,0.844h6.54l3.406-0.845  l1.896,0.805l2.561,1.698l2.258,2.288l2.023,3.284l-3.181,1.349l-3.214,2.211h-25.959L-393.799,52.425z M-391.872,83.15  l-1.332-2.304l-0.409-1.866h1.741V83.15z M-391.872,77.984h-1.966l-0.192-1.037v-4.939h2.158V77.984z M-391.872,71.012h-2.158  v-4.482h2.158V71.012z M-396.354,63.21v-1.162h6.142v-0.996h-6.142V59.89h6.142v-0.996h-6.142v-1.327h24.812l-1.461,2.234  l-1.658,3.409H-396.354z M-374.939,78.98v5.81h-2.158v-5.81H-374.939z M-384.899,89.348l-2.336-1.278l-2.53-2.284h4.866V89.348z   M-384.899,84.79h-5.977v-5.81h5.977V84.79z M-384.899,77.984h-5.977v-5.977h5.977V77.984z M-384.899,71.012h-5.977v-4.482h5.977  V71.012z M-378.094,90.766h-2.271l-3.467-0.793l-0.072-0.074v-4.113h5.81V90.766z M-378.094,84.79h-5.81v-5.81h5.81V84.79z   M-378.094,77.984h-5.81v-5.977h5.81V77.984z M-378.094,71.012h-5.81v-4.482h5.81V71.012z M-374.612,90.766h-2.485v-4.98h2.158v3.09  l0.397,1.856L-374.612,90.766z M-369.462,94.703l-1.332-2.351l-0.417-1.919h1.749V94.703z M-369.462,89.438h-1.969l-0.189-0.936  v-4.874h2.158V89.438z M-369.462,82.632h-2.158V78.15h2.158V82.632z M-362.489,100.93l-2.35-1.289l-2.55-2.234h4.899V100.93z   M-362.489,96.41l-5.977-0.008v-5.969h5.977V96.41z M-362.489,89.438h-5.977v-5.81h5.977V89.438z M-362.489,82.632h-5.977V78.15  h5.977V82.632z M-355.684,102.386h-2.298l-3.513-0.9v-4.079h5.811V102.386z M-355.684,96.41h-5.811v-5.977h5.811V96.41z   M-355.684,89.438h-5.811v-5.81h5.811V89.438z M-355.684,82.632h-5.811V78.15h5.811V82.632z M-354.688,102.386v-4.979h2.157v3.022  l0.395,1.957H-354.688z M-354.688,96.41v-5.977h2.157v5.977H-354.688z M-352.301,74.83h-21.809v-1.328h6.308v-0.996h-6.308V71.51  h6.308v-0.996h-6.308v-1.328h24.908l-1.417,2.17l-1.467,2.854L-352.301,74.83z M-347.052,106.262l-1.369-2.324l-0.441-1.884h1.811  V106.262z M-347.052,101.058h-2.037l-0.121-1.003v-4.973h2.158V101.058z M-347.052,94.086h-2.158V89.77h2.158V94.086z   M-340.08,112.452l-2.362-1.277l-2.556-2.314h4.918V112.452z M-340.08,107.864h-5.982l0.007-5.811h5.976V107.864z M-340.08,101.058  h-5.976v-5.976h5.976V101.058z M-340.08,94.086h-5.976V89.77h5.976V94.086z M-333.273,113.84h-2.325l-3.485-0.775v-4.204h5.811  V113.84z M-333.273,107.864h-5.811v-5.811h5.811V107.864z M-333.273,101.058h-5.811v-5.976h5.811V101.058z M-333.273,94.086h-5.811  V89.77h5.811V94.086z M-326.468,113.067l-3.379,0.772h-2.431v-4.979h5.81V113.067z M-326.468,107.864h-5.81v-5.811h5.81V107.864z   M-326.468,101.058h-5.81v-5.976h5.81V101.058z M-326.468,94.086h-5.81V89.77h5.81V94.086z M-322.979,111.185l-2.493,1.352v-3.676  h5.025L-322.979,111.185z M-319.496,107.864h-5.976v-5.811h5.976V107.864z M-319.496,101.058h-5.976v-5.976h5.976V101.058z   M-319.496,94.086h-5.976V89.77h5.976V94.086z M-317.001,103.938l-1.499,2.589v-4.473h1.918L-317.001,103.938z M-316.176,100.055  l-0.18,1.003h-2.145v-5.976h2.324V100.055z M-316.176,94.086h-2.324V89.77h2.324V94.086z M-313.852,81.968h-6.309v0.996h6.309v1.162  h-6.309v0.996h6.309v1.327H-351.7v-1.327h6.309v-0.996h-6.309v-1.162h6.309v-0.996h-6.309V80.64h37.849V81.968z"/><path fill="#000000" d="M-345.555,178.055l-15.453-2.719l-14.004,9.18l-29.447-22.399l-8.52,5.585l8.419,12.842l-10.381,6.613  l0.534,0.84l10.393-6.619l2.64,4.026l-10.445,6.653l0.535,0.84l10.456-6.66l2.64,4.026l-10.51,6.694l0.535,0.84l10.521-6.701  l3.787,5.776l-19.626,12.864l-4.82,7.903l-9.543-2.489l-6.835,4.497l15.436,23.545l6.85-4.473l1.524-9.743l9.169-1.269  l19.625-12.865l3.615,5.514l-10.455,6.661l0.535,0.84l10.467-6.668l2.639,4.026l-10.52,6.701l0.535,0.841l10.531-6.709l2.639,4.026  l-10.584,6.742l0.535,0.841l10.596-6.75l8.59,13.104l8.52-5.585l-8.795-35.938l14.004-9.18L-345.555,178.055z M-352.146,191.256  L-367.01,201l8.793,35.938l-3.779,2.479l-19.123-29.171l-21.777,14.276l-10.873,1.505l-1.677,10.721l-2.839,1.854l-11.801-18.002  l2.832-1.863l10.501,2.739l5.717-9.371l21.777-14.275l-19.123-29.17l3.781-2.479l29.446,22.398l14.865-9.744l10.68,1.879  L-352.146,191.256z"/><g><rect x="-532.991" y="-10.55" fill="#000000" width="11.261" height="0.996"/><rect x="-513.521" y="-31.723" fill="#000000" width="0.996" height="11.262"/><rect x="-526.399" y="-24.532" transform="matrix(0.4964 0.8681 -0.8681 0.4964 -283.1327 439.9768)" fill="#000000" width="11.261" height="0.996"/><rect x="-532.101" y="-18.901" transform="matrix(0.8618 0.5072 -0.5072 0.8618 -82.0843 264.4937)" fill="#000000" width="11.261" height="0.996"/><rect x="-504.351" y="-10.55" fill="#000000" width="11.261" height="0.996"/><rect x="-505.812" y="-29.665" transform="matrix(0.8684 0.4959 -0.4959 0.8684 -78.4369 247.4352)" fill="#000000" width="0.996" height="11.261"/><rect x="-505.241" y="-18.901" transform="matrix(-0.8618 0.5072 -0.5072 -0.8618 -939.518 219.1495)" fill="#000000" width="11.261" height="0.996"/><path fill="#000000" d="M-513.022-16.594l-28.229,74.282l56.46,0.002L-513.022-16.594z M-502.378,20.76l4.496,11.832l-14.027-7.045   L-502.378,20.76z M-513.019,24.991l-10.275-5.16l10.273-5.16l10.275,5.16L-513.019,24.991z M-511.911,14.114l5.884-2.955   l2.776,7.304L-511.911,14.114z M-506.383,10.222l-6.638,3.334l-6.639-3.334l6.654-3.341l6.615,3.322L-506.383,10.222z    M-511.895,6.324l3.385-1.7l1.596,4.201L-511.895,6.324z M-508.869,3.689l-4.136,2.077l-4.156-2.088l4.135-2.077L-508.869,3.689z    M-511.916,1.044l1.718-0.863l0.811,2.132L-511.916,1.044z M-516.654,2.309l0.808-2.124l1.711,0.859L-516.654,2.309z    M-517.528,4.609l3.414,1.715l-5.024,2.523L-517.528,4.609z M-520.017,11.157l5.886,2.957l-8.663,4.351L-520.017,11.157z    M-523.665,20.758l9.537,4.789l-14.037,7.049L-523.665,20.758z M-529.035,34.887l14.903,7.486l-21.937,11.019L-529.035,34.887z    M-528.661,33.96l15.643-7.856l15.639,7.854l-15.643,7.857L-528.661,33.96z M-497.009,34.887l7.032,18.507l-21.937-11.021   L-497.009,34.887z M-510.554-0.754l-2.473,1.241l-2.465-1.238l2.469-6.498L-510.554-0.754z M-535.79,54.367l22.768-11.436   l22.77,11.438h-22.769L-535.79,54.367z"/></g><path fill="#000000" d="M50,94.684L42.649,67.17L20.556,78.933l10.916-20.703L7.261,50.001l24.211-8.229L20.556,21.069  l22.094,11.762L50,5.317l7.351,27.514l22.094-11.762L68.528,41.771l24.211,8.229l-24.211,8.229l10.916,20.703L57.351,67.17  L50,94.684z M44.778,62.275L50,81.821l5.222-19.546l16.248,8.65l-7.691-14.588l18.645-6.337l-18.645-6.338l7.691-14.587  l-16.248,8.65L50,18.181l-5.222,19.545l-16.248-8.65l7.691,14.587l-18.645,6.338l18.645,6.337L28.53,70.926L44.778,62.275z"/></svg>
